<svg xmlns="http://www.w3.org/2000/svg" version="1.1" xmlns:xlink="http://www.w3.org/1999/xlink" width="512" height="512" x="0" y="0" viewBox="0 0 682.667 682.667" style="enable-background:new 0 0 512 512" xml:space="preserve" class=""><g><defs><clipPath id="a" clipPathUnits="userSpaceOnUse"><path d="M0 512h512V0H0Z" fill="#000000" opacity="1" data-original="#000000"></path></clipPath></defs><g clip-path="url(#a)" transform="matrix(1.33333 0 0 -1.33333 0 682.667)"><path d="M0 0c18.28-16.479 30-40.09 30-66.59 0-49.63-40.37-90-90-90s-90 40.37-90 90c0 26.5 11.72 50.111 30 66.59v275.41c0 33.14 26.86 60 60 60s60-26.86 60-60z" style="fill-opacity:1;fill-rule:nonzero;stroke:none" transform="translate(231 166.59)" fill="#fff5f5" data-original="#fff5f5"></path><path d="M0 0v286.17c0 11.05-8.95 20-20 20s-20-8.95-20-20V0c-17.64-7.73-30-25.36-30-45.83 0-27.58 22.43-50 50-50s50 22.42 50 50C30-25.36 17.64-7.73 0 0" style="fill-opacity:1;fill-rule:nonzero;stroke:none" transform="translate(191 145.83)" fill="#c4636d" data-original="#ff637b" class="" opacity="1"></path><path d="M0 0c11.05 0 20-8.95 20-20S11.05-40 0-40s-20 8.95-20 20S-11.05 0 0 0" style="fill-opacity:1;fill-rule:nonzero;stroke:none" transform="translate(301 436)" fill="#c4636d" data-original="#ff637b" class="" opacity="1"></path><path d="M0 0v-44.17C17.64-51.9 30-69.53 30-90c0-27.58-22.43-50-50-50s-50 22.42-50 50c0 20.47 12.36 38.1 30 45.83V242c0 11.05 8.95 20 20 20s20-8.95 20-20V63Z" style="stroke-width:20;stroke-linecap:round;stroke-linejoin:round;stroke-miterlimit:10;stroke-dasharray:none;stroke-opacity:1" transform="translate(191 190)" fill="none" stroke="#000000" stroke-width="20" stroke-linecap="round" stroke-linejoin="round" stroke-miterlimit="10" stroke-dasharray="none" stroke-opacity="" data-original="#000000"></path><path d="M0 0c0-24.85-20.15-45-45-45-12.42 0-23.68 5.04-31.82 13.18S-90-12.42-90 0v90c0 24.85 20.15 45 45 45 12.42 0 23.68-5.04 31.82-13.18S0 102.42 0 90" style="stroke-width:20;stroke-linecap:round;stroke-linejoin:round;stroke-miterlimit:10;stroke-dasharray:none;stroke-opacity:1" transform="translate(431 281)" fill="none" stroke="#000000" stroke-width="20" stroke-linecap="round" stroke-linejoin="round" stroke-miterlimit="10" stroke-dasharray="none" stroke-opacity="" data-original="#000000"></path><path d="M0 0h40" style="stroke-width:20;stroke-linecap:round;stroke-linejoin:round;stroke-miterlimit:10;stroke-dasharray:none;stroke-opacity:1" transform="translate(151 379)" fill="none" stroke="#000000" stroke-width="20" stroke-linecap="round" stroke-linejoin="round" stroke-miterlimit="10" stroke-dasharray="none" stroke-opacity="" data-original="#000000"></path><path d="M0 0h40" style="stroke-width:20;stroke-linecap:round;stroke-linejoin:round;stroke-miterlimit:10;stroke-dasharray:none;stroke-opacity:1" transform="translate(151 316)" fill="none" stroke="#000000" stroke-width="20" stroke-linecap="round" stroke-linejoin="round" stroke-miterlimit="10" stroke-dasharray="none" stroke-opacity="" data-original="#000000"></path><path d="M0 0h-40" style="stroke-width:20;stroke-linecap:round;stroke-linejoin:round;stroke-miterlimit:10;stroke-dasharray:none;stroke-opacity:1" transform="translate(191 253)" fill="none" stroke="#000000" stroke-width="20" stroke-linecap="round" stroke-linejoin="round" stroke-miterlimit="10" stroke-dasharray="none" stroke-opacity="" data-original="#000000"></path><path d="M0 0h-40" style="stroke-width:20;stroke-linecap:round;stroke-linejoin:round;stroke-miterlimit:10;stroke-dasharray:none;stroke-opacity:1" transform="translate(191 190)" fill="none" stroke="#000000" stroke-width="20" stroke-linecap="round" stroke-linejoin="round" stroke-miterlimit="10" stroke-dasharray="none" stroke-opacity="" data-original="#000000"></path><path d="M0 0c0-11.05-8.95-20-20-20s-20 8.95-20 20 8.95 20 20 20S0 11.05 0 0Z" style="stroke-width:20;stroke-linecap:round;stroke-linejoin:round;stroke-miterlimit:10;stroke-dasharray:none;stroke-opacity:1" transform="translate(321 416)" fill="none" stroke="#000000" stroke-width="20" stroke-linecap="round" stroke-linejoin="round" stroke-miterlimit="10" stroke-dasharray="none" stroke-opacity="" data-original="#000000"></path><path d="M0 0c0-5.522-4.477-10-10-10S-20-5.522-20 0s4.477 10 10 10S0 5.522 0 0" style="fill-opacity:1;fill-rule:nonzero;stroke:none" transform="translate(241 316)" fill="#000000" data-original="#000000"></path><path d="M0 0v80.999c0 33.14-26.86 60-60 60s-60-26.86-60-60v-275.41c-18.28-16.48-30-40.09-30-66.59 0-49.63 40.37-90 90-90s90 40.37 90 90c0 26.5-11.72 50.11-30 66.59v104.41" style="stroke-width:20;stroke-linecap:round;stroke-linejoin:round;stroke-miterlimit:10;stroke-dasharray:none;stroke-opacity:1" transform="translate(231 361.001)" fill="none" stroke="#000000" stroke-width="20" stroke-linecap="round" stroke-linejoin="round" stroke-miterlimit="10" stroke-dasharray="none" stroke-opacity="" data-original="#000000"></path></g></g></svg>